# xmcd
#
# Track frame offsets:
#	150
#	21228
#	32845
#	46256
#	80309
#	105989
#	127280
#	156661
#	168564
#	183149
#
# Disc length: 2622 seconds
#
# Revision: 0
# Processed by: cddbd v1.5.2PL0 Copyright (c) Steve Scherf et al.
# Submitted via: EasyCDDAExtractor 10.0.2.1
#
DISCID=7e0a3c0a
DTITLE=Various Artist - The Kings Of Blues
DYEAR=1995
DGENRE=Blues
TTITLE0=John Lee Hooker - Looking Back Over My Day
TTITLE1=Leadbelly - Mother's Blues (Little Children Blues)
TTITLE2=Memphis Slim - Lonely Nights
TTITLE3=Jimmy Witherspoon - Slow Blues In G
TTITLE4=Jimmy Hamilton - C Jam Blues
TTITLE5=Teddy Wilson - Limehouse Blues
TTITLE6=Lionel Hampton - Blues For Hamp
TTITLE7=Memphis Slim - Memphis Slim USA
TTITLE8=Cab Calloway - Minnie The Moocher
TTITLE9=Leadbelly - Leaving Blues
EXTD=
EXTT0=
EXTT1=
EXTT2=
EXTT3=
EXTT4=
EXTT5=
EXTT6=
EXTT7=
EXTT8=
EXTT9=
PLAYORDER=
